<svg xmlns="http://www.w3.org/2000/svg" xmlns:xlink="http://www.w3.org/1999/xlink" preserveAspectRatio="xMidYMid meet" version="1.0" viewBox="1.0 17.6 510.0 473.4" zoomAndPan="magnify" style="fill: rgb(194, 158, 116);" original_string_length="6206" width="62.943146107059086px" height="58.36546275381842px"><g><g><g><g id="__id0_spfyi9j3bp"><path d="M111,490.992H11c-5.523,0-10-4.478-10-10v-60c0-5.522,4.477-10,10-10h100c5.522,0,10,4.478,10,10v60 C121,486.514,116.522,490.992,111,490.992z M21,470.992h80v-40H21V470.992z" style="fill: inherit;"/></g><g id="__id1_spfyi9j3bp"><path d="M261,490.992H111c-5.523,0-10-4.478-10-10v-60c0-5.522,4.477-10,10-10h150c5.522,0,10,4.478,10,10v60 C271,486.514,266.522,490.992,261,490.992z M121,470.992h130v-40H121V470.992z" style="fill: inherit;"/></g><g id="__id2_spfyi9j3bp"><path d="M391,490.992H261c-5.523,0-10-4.478-10-10v-60c0-5.522,4.477-10,10-10h130c5.522,0,10,4.478,10,10v60 C401,486.514,396.522,490.992,391,490.992z M271,470.992h110v-40H271V470.992z" style="fill: inherit;"/></g><g id="__id3_spfyi9j3bp"><path d="M501,490.992H391c-5.522,0-10-4.478-10-10v-60c0-5.522,4.478-10,10-10h110c5.522,0,10,4.478,10,10v60 C511,486.514,506.522,490.992,501,490.992z M401,470.992h90v-40h-90V470.992z" style="fill: inherit;"/></g><g id="__id4_spfyi9j3bp"><path d="M91,430.992H11c-5.523,0-10-4.478-10-10v-60c0-5.522,4.477-10,10-10h80c5.522,0,10,4.478,10,10v60 C101,426.514,96.522,430.992,91,430.992z M21,410.992h60v-40H21V410.992z" style="fill: inherit;"/></g><g id="__id5_spfyi9j3bp"><path d="M211,430.992H91c-5.523,0-10-4.478-10-10v-60c0-5.522,4.477-10,10-10h120c5.523,0,10,4.478,10,10v60 C221,426.514,216.523,430.992,211,430.992z M101,410.992h100v-40H101V410.992z" style="fill: inherit;"/></g><g id="__id6_spfyi9j3bp"><path d="M341,430.992H211c-5.523,0-10-4.478-10-10v-60c0-5.522,4.477-10,10-10h130c5.522,0,10,4.478,10,10v60 C351,426.514,346.522,430.992,341,430.992z M221,410.992h110v-40H221V410.992z" style="fill: inherit;"/></g><g id="__id7_spfyi9j3bp"><path d="M451,430.992H341c-5.522,0-10-4.478-10-10v-60c0-5.522,4.478-10,10-10h110c5.522,0,10,4.478,10,10v60 C461,426.514,456.522,430.992,451,430.992z M351,410.992h90v-40h-90V410.992z" style="fill: inherit;"/></g><g id="__id8_spfyi9j3bp"><path d="M71,370.992H11c-5.523,0-10-4.478-10-10v-60c0-5.522,4.477-10,10-10h60c5.522,0,10,4.478,10,10v60 C81,366.514,76.522,370.992,71,370.992z M21,350.992h40v-40H21V350.992z" style="fill: inherit;"/></g><g id="__id9_spfyi9j3bp"><path d="M161,370.992H71c-5.523,0-10-4.478-10-10v-60c0-5.522,4.477-10,10-10h90c5.522,0,10,4.478,10,10v60 C171,366.514,166.522,370.992,161,370.992z M81,350.992h70v-40H81V350.992z" style="fill: inherit;"/></g><g id="__id10_spfyi9j3bp"><path d="M291,370.992H161c-5.523,0-10-4.478-10-10v-60c0-5.522,4.477-10,10-10h130c5.522,0,10,4.478,10,10v60 C301,366.514,296.522,370.992,291,370.992z M171,350.992h110v-40H171V350.992z" style="fill: inherit;"/></g><g id="__id11_spfyi9j3bp"><path d="M401,370.992H291c-5.522,0-10-4.478-10-10v-60c0-5.522,4.478-10,10-10h110c5.522,0,10,4.478,10,10v60 C411,366.514,406.522,370.992,401,370.992z M301,350.992h90v-40h-90V350.992z" style="fill: inherit;"/></g><g id="__id12_spfyi9j3bp"><path d="M101,310.992H11c-5.523,0-10-4.478-10-10v-60c0-5.522,4.477-10,10-10h90c5.522,0,10,4.478,10,10v60 C111,306.514,106.522,310.992,101,310.992z M21,290.992h70v-40H21V290.992z" style="fill: inherit;"/></g><g id="__id13_spfyi9j3bp"><path d="M171,310.992h-70c-5.523,0-10-4.478-10-10v-60c0-5.522,4.477-10,10-10h70c5.522,0,10,4.478,10,10v60 C181,306.514,176.522,310.992,171,310.992z M111,290.992h50v-40h-50V290.992z" style="fill: inherit;"/></g><g id="__id14_spfyi9j3bp"><path d="M251,310.992h-80c-5.523,0-10-4.478-10-10v-60c0-5.522,4.477-10,10-10h46.34c5.523,0,10,4.478,10,10 c0,5.523-4.477,10-10,10H181v40h60v-28.69c0-5.522,4.477-10,10-10c5.522,0,10,4.478,10,10v38.69 C261,306.514,256.522,310.992,251,310.992z" style="fill: inherit;"/></g><g id="__id15_spfyi9j3bp"><path d="M351,310.992H251c-5.523,0-10-4.478-10-10v-38.69c0-5.522,4.477-10,10-10c5.522,0,10,4.478,10,10 v28.69h80v-40h-40.93c-5.522,0-10-4.477-10-10c0-5.522,4.478-10,10-10H351c5.522,0,10,4.478,10,10v60 C361,306.514,356.522,310.992,351,310.992z" style="fill: inherit;"/></g><g id="__id16_spfyi9j3bp"><path d="M217.267,264.452c-9.838-9.839-12.675-24.468-7.227-37.27L264.236,99.83 c6.143-14.435,24.938-18.03,35.989-6.979h0.001l87.858,87.858c11.023,11.025,7.467,29.715-6.828,35.925l-126.489,54.942 C241.964,277.139,227.23,274.415,217.267,264.452z M284.184,106.413c-0.504,0.098-1.181,0.394-1.545,1.249l-54.196,127.352 c-2.235,5.254-1.071,11.258,2.967,15.295c4.07,4.071,10.113,5.218,15.39,2.925l126.489-54.942 c0.85-0.369,1.142-1.045,1.237-1.547c0.095-0.502,0.071-1.237-0.583-1.893l-87.858-87.857 C285.559,106.47,284.902,106.275,284.184,106.413z" style="fill: inherit;"/></g><g id="__id17_spfyi9j3bp"><path d="M376.502,140.845l-35.355-35.355c-3.905-3.905-3.905-10.237,0-14.142l60.104-60.105 c13.646-13.645,35.85-13.646,49.497,0c13.647,13.647,13.647,35.851,0.001,49.498l-60.104,60.104 C386.737,144.751,380.408,144.749,376.502,140.845z M362.36,98.418l21.213,21.213l53.033-53.033 c5.849-5.848,5.849-15.364,0-21.214c-5.848-5.846-15.365-5.848-21.213,0.001L362.36,98.418z" style="fill: inherit;"/></g><g id="__id18_spfyi9j3bp"><path d="M308.8,172.137c-3.905-3.905-3.905-10.237,0-14.143l49.497-49.498c3.906-3.904,10.236-3.904,14.143,0 c3.905,3.905,3.905,10.237,0,14.143l-49.497,49.498C319.035,176.043,312.706,176.041,308.8,172.137z" style="fill: inherit;"/></g><g id="__id19_spfyi9j3bp"><path d="M81,250.992H11c-5.523,0-10-4.477-10-10v-60c0-5.522,4.477-10,10-10h70c5.522,0,10,4.478,10,10v60 C91,246.514,86.522,250.992,81,250.992z M21,230.992h50v-40H21V230.992z" style="fill: inherit;"/></g><g id="__id20_spfyi9j3bp"><path d="M171,250.992H81c-5.523,0-10-4.477-10-10v-60c0-5.522,4.477-10,10-10h90c5.522,0,10,4.478,10,10v60 C181,246.514,176.522,250.992,171,250.992z M91,230.992h70v-40H91V230.992z" style="fill: inherit;"/></g><g id="__id21_spfyi9j3bp"><path d="M101,190.992H11c-5.523,0-10-4.477-10-10v-60c0-5.523,4.477-10,10-10h90c5.522,0,10,4.477,10,10v60 C111,186.514,106.522,190.992,101,190.992z M21,170.992h70v-40H21V170.992z" style="fill: inherit;"/></g></g></g></g></svg>