<svg xmlns="http://www.w3.org/2000/svg" xmlns:xlink="http://www.w3.org/1999/xlink" preserveAspectRatio="xMidYMid meet" version="1.0" viewBox="0.0 0.0 499.1 500.2" zoomAndPan="magnify" style="fill: rgb(189, 153, 111);" original_string_length="40475" width="632.7604451202827px" height="633.9130142370775px"><g id="__id23_sy90wtga"><path d="M450.7,390.9c-12-9-25.6-15.4-39.7-20l-1.5-0.6l-1.1-0.5l-1-0.6l-0.9-0.6l-0.8-0.6l-0.9-0.8c-0.3-0.3-0.6-0.6-0.9-0.9 s-0.5-0.6-0.7-0.9l-0.6-1l-0.5-1c-0.2-0.4-0.4-0.8-0.5-1.1l-0.4-1c-0.6-2-1.3-4-2-6c-3.9-10.9-8.3-23.2-17.6-31.6 c-18-16.4-47.1-11-65.3,2.4c-2.4,1.8-4.7,3.7-6.9,5.7c-1.2,0.9-2.4,1.9-3.6,2.8c-1.1,0.8-2.3,1.6-3.4,2.5c-1.3,0.8-2.5,1.6-3.8,2.5 c-1.3,0.7-2.6,1.5-3.9,2.2s-2.8,1.4-4.2,2.1c-1.3,0.5-2.6,1.1-3.9,1.6c-1.5,0.5-3,1-4.6,1.5c-1.5,0.4-3,0.8-4.5,1.2 s-3.2,0.5-4.9,0.8l-5,0.5l-5.2,0.1l-5.3-0.3c-35-4.7-69.6-11.9-101.9-25.8c-10.7-4.6-21-10.1-30.7-16.4c0.2-2.1,0.4-4.2,0.6-6.3 c2-18.1,6-36.3,9.9-53.8c2.8-12.4,5.6-25.2,7.7-38c2.4-14.4,4.4-31.4,0.9-47.9c-3.4-16-11.7-29.3-23.1-37.1 c-1.9-1.9-3.9-3.6-6.1-5.1c-1.9-2-4.1-3.7-6.3-5.3c-1.6-1.7-3.4-3.2-5.2-4.6c-0.3-0.2-0.6-0.4-0.9-0.6c-1.2-1.3-2.6-2.6-4-3.8 c-0.8-0.6-1.5-1.2-2.3-1.8c-0.8-0.9-1.7-1.8-2.6-2.6c-1.2-1.1-2.4-2.1-3.6-3c-0.4-0.5-0.8-0.9-1.3-1.4c-1.5-1.6-3.2-3.1-4.9-4.4 c-1.9-2.2-4-4.3-6.3-6.1c-1.9-2.3-4-4.5-6.2-6.5c-1.9-2.5-3.9-4.8-6.1-6.9c-1.8-2.7-3.8-5.2-5.9-7.6c-1.7-2.8-3.5-5.5-5.5-8.1 c-1.5-3-3.2-6-5-8.8c-1.6-4-3.5-7.8-5.5-11.6C35.1,21.4,24.4,9.3,11.4,0l-0.3,0.3c15.9,11.4,28.3,26.9,36,44.9 c-2.3-3.5-4.8-6.8-7.4-10c-7-8.6-16.3-17.7-29.1-28.5L10.3,7c12.8,10.8,22.1,19.9,29.1,28.5c3.1,3.8,6,7.8,8.7,12 c0.5,1.2,0.9,2.4,1.4,3.6c-2.5-3-5.4-6-8.6-9.2c-4.7-4.6-10.1-9.4-15.3-14S14.7,18.3,9.7,13.4l-0.3,0.3c5,4.9,10.5,9.8,15.8,14.5 s10.6,9.4,15.3,14c3.5,3.4,6.6,6.8,9.3,10c0.5,1.4,0.9,2.7,1.3,4.1c-2.8-2.6-5.9-5.1-9.2-7.8c-2.1-1.7-4.3-3.4-6.7-5.2 c-8.8-6.9-18.9-14.7-26.4-23.2l-0.3,0.3C16.1,29,26.2,36.8,35,43.7c2.3,1.9,4.5,3.6,6.7,5.3c3.5,2.8,6.7,5.5,9.7,8.2 c0.4,1.5,0.8,3,1.2,4.5c-3.1-2.2-6.3-4.3-9.5-6.4l-0.8-0.5C31,47.5,16.9,38.4,8.1,26.8l-0.4,0.3c8.9,11.6,23,20.7,34.4,28.1l0.8,0.5 c3.3,2.1,6.6,4.3,9.9,6.6c0.4,1.6,0.7,3.2,1,4.8c-2.5-1.3-5-2.7-7.5-4l-2-1C30.6,55,15.6,46,7.3,33.6l-0.4,0.2 c8.4,12.5,23.5,21.5,37.2,28.6l2,1c2.7,1.4,5.3,2.8,7.9,4.2c0.3,1.6,0.6,3.3,0.8,4.9c-1.6-0.7-3.3-1.4-4.9-2 c-1.5-0.6-2.9-1.2-4.4-1.8c-19.8-8.3-32.5-17.6-39-28.5L6,40.5c6.5,11,19.3,20.3,39.2,28.6l4.4,1.8c1.7,0.7,3.5,1.4,5.2,2.1 c0.2,1.7,0.4,3.4,0.6,5.1l-2.5-0.8c-2.1-0.7-4.2-1.3-6.3-2C32.2,70.8,13.4,62,5.5,47.1l-0.4,0.2c7.9,15.1,26.8,23.9,41.2,28.7 c2.1,0.7,4.3,1.4,6.3,2l2.7,0.8c0.1,0.7,0.1,1.4,0.2,2.1c0.1,1.1,0.1,2.1,0.1,3.2h-0.1c-2.6-0.6-5.3-1.2-8-1.9 C35.1,79,12.7,71.1,4.7,53.7l-0.4,0.2c8.1,17.6,30.6,25.5,43.2,28.7c2.7,0.7,5.4,1.3,8,1.9h0.2c0,1.8,0,3.7,0,5.5 c-2.3-0.4-4.6-0.8-6.9-1.2C38,86.8,12,80,3.9,60.3l-0.4,0.2c8.1,19.9,34.3,26.8,45.2,28.8c2.3,0.4,4.7,0.8,7,1.2 c0,1.9-0.1,3.8-0.3,5.7c-1.8-0.2-3.7-0.4-5.5-0.6C41,94.4,11,89,3.1,67l-0.4,0.2c8,22.2,38.2,27.6,47.3,28.8 c1.8,0.2,3.7,0.4,5.5,0.6c-0.1,2-0.3,3.9-0.5,5.9c-1.3-0.1-2.5-0.1-3.8-0.2c-19.7-1.4-42.9-9.7-48.9-28.5l-0.5,0.1 c6.1,19,29.5,27.3,49.3,28.8c1.3,0.1,2.5,0.2,3.8,0.2c-0.2,2-0.5,4-0.8,6.1c-0.6,0-1.2,0-1.9,0C32.3,108.4,7,100.7,1.3,80.5 l-0.4,0.1c5.8,20.4,31.2,28.2,51.3,28.8H54c-0.3,2.1-0.6,4.2-1,6.2c-11.8,0.1-23.3-2.1-32.3-6.3c-10.9-5-17.9-12.7-20.2-22.2L0,87.3 c2.4,9.7,9.5,17.4,20.5,22.5c9.1,4.2,20.6,6.4,32.5,6.3c-1,5.8-2,11.5-3.1,17.2c-2.9,15.2-6,30.9-5.9,46.5 c0.1,23,6.9,45.9,19.8,67.3c1.9,3.8,3.9,7.5,6.1,11.2c1.8,3.7,3.8,7.4,6,11c1.9,3.9,4,7.7,6.3,11.5c1.8,3.8,3.9,7.6,6.1,11.3 c1.8,3.7,3.7,7.3,5.8,10.9c1.8,3.8,3.7,7.4,5.9,11c1.8,3.8,3.7,7.4,5.8,11c1.7,3.5,3.5,7,5.4,10.3c1.7,3.8,3.7,7.5,5.8,11.1 c1.7,3.7,3.6,7.3,5.7,10.8c1.7,3.7,3.6,7.4,5.7,10.9c1.6,3.5,3.4,7,5.4,10.3c1.9,4.4,4.2,8.6,6.7,12.7c8.5,13.4,20.6,24.1,35,30.8 c15.1,7.1,30.7,8.6,45,4.4c23.7-6.9,40.3-28,52.1-45.5c2.2-3.2,4.4-6.6,6.5-9.8c3.8-5.9,7.7-11.8,11.9-17.5c8,0.8,16,1.6,24,2.4 c9.3,0.9,18.9,1.8,28.3,2.8c19.2,2,39.8,4.7,59.5,10.2c2.6,10.2,4.3,20.5,6,30.6c2.4,14.7,4.9,29.8,10.1,44.3 c4.9,13.7,11.9,26.4,19.8,36c9.9,12,20.8,18.9,32.5,20.4l0-0.4c-24.6-3.2-43-31.1-51.9-56.1c-5.1-14.4-7.6-29.5-10.1-44.2 c-1.6-10-3.3-20.3-5.9-30.4l0.2,0c3.4,10.2,5.7,20.7,8.2,31.6c0.7,3.2,1.5,6.5,2.3,9.8c2.3,10.5,5.3,20.9,9,31 c3.7,9.7,10,23.8,19.3,36.1s19.1,19.5,29.4,21.8l0.1-0.4c-26.9-5.9-43.9-45.6-48.4-57.6c-3.7-10.1-6.7-20.5-9-31 c-0.8-3.3-1.5-6.6-2.2-9.8c-2.4-10.4-4.8-21-8.1-31.4h0.2c4.4,10.8,7.6,21.9,11,33.4c0.6,2.1,1.2,4.1,1.8,6.2 c2.9,9.7,6,20,10.1,30.4c6.2,15.4,23,52,45.2,59.4l0.1-0.4c-22-7.2-38.7-43.7-44.9-59.1c-4.1-10.4-7.2-20.7-10.1-30.4 c-0.6-2.1-1.2-4.1-1.8-6.2c-3.4-11.4-6.6-22.4-10.9-33.1h0.1c5.8,11.6,10.2,23.8,14.8,36.5l1.3,3.7c3.2,8.9,6.5,18.2,10.4,27.4 c9.9,23.4,25.1,52.9,41.7,60.9l0.2-0.4c-16.4-8-31.6-37.4-41.5-60.7c-3.9-9.2-7.2-18.5-10.4-27.4l-1.3-3.7 c-4.5-12.6-8.9-24.7-14.6-36.2h0.1c6.9,11.4,12.3,23.6,17.6,36.1c1.5,3.4,2.9,6.9,4.4,10.5c2.5,6.1,5.1,12.4,7.9,18.7 c10.6,24,24.6,52.8,38.1,62.4l0.2-0.4c-13.6-9.7-28.2-40.1-38-62.2c-2.8-6.3-5.4-12.6-7.9-18.7c-1.5-3.6-2.9-7-4.4-10.5 c-5.3-12.3-10.6-24.4-17.4-35.7l0,0c8.1,11.2,14.4,23,20,34.3c3.1,6.3,6.2,12.9,9.4,19.8c1.3,2.9,2.7,5.8,4,8.8l2.2,4.7 c10.6,22.9,22.7,48.8,32.4,59.1l0.3-0.3c-9.7-10.3-21.7-36.2-32.3-59l-2.2-4.7l-4-8.8c-3.2-6.9-6.2-13.5-9.4-19.8 c-5.6-11.1-11.8-22.7-19.6-33.7c7.6,8.9,14.7,19.2,22.2,32.3c5.1,8.9,9.9,18.7,14.5,28c4.7,9.7,9.5,20.1,14.1,30.2 c6.5,14.2,12.6,27.7,17,35.1l0.4-0.2c-4.3-7.5-10.5-20.9-17-35.1c-4.6-10.1-9.4-20.5-14.1-30.2c-4.5-9.3-9.4-19.1-14.5-28 c-6.3-11.1-13.5-21.6-21.6-31.5c9.1,9.2,17.2,19.3,24.2,30.1c5.7,8.8,10.9,18,15.5,27.4c12.7,24.9,23.6,54.2,27.5,66.8l0.4-0.1 c-3.9-12.6-14.8-42-27.5-66.9c-4.7-9.4-9.9-18.6-15.6-27.4c-6.8-10.5-14.6-20.3-23.4-29.2c9.7,8.3,18.4,17.7,26,27.9 c6.2,8.5,11.8,17.4,16.7,26.8c12.3,23.1,22.6,52.4,24,68.3h0.4c-1.4-15.9-11.7-45.3-24-68.4c-4.9-9.4-10.5-18.3-16.7-26.8 c-7.4-10-15.9-19.1-25.3-27.2c10.3,7.5,19.7,16.2,28,25.9c6.7,8.1,12.7,16.9,17.7,26.1c13.7,24.4,22.1,53.1,20.5,69.8h0.4 c1.6-16.7-6.8-45.5-20.5-70c-5.1-9.3-11-18.1-17.8-26.2c-8-9.4-17-17.8-26.9-25.2c10.8,6.6,20.8,14.7,29.6,23.8 c7.2,7.7,13.6,16.3,18.8,25.5c14.5,25,21.4,53.6,17,71.2l0.4,0.1c4.4-17.8-2.4-46.5-17-71.6c-5.3-9.2-11.6-17.8-18.9-25.6 c-8.5-8.9-18.1-16.6-28.5-23.1c11.3,5.8,21.8,13.2,31.2,21.9c7.7,7.3,14.4,15.7,19.9,24.9c15.3,25.3,20.6,53.8,13.4,72.7l0.4,0.2 c0.1-0.3,0.2-0.6,0.3-0.8l0.3,0.1c0.1-0.3,0.2-0.5,0.4-0.8l0.2,0.1C499.1,457.1,479.9,412.7,450.7,390.9z M62.7,97.3 c2,0.2,4,0.4,6,0.6c0.1,1.7,0.2,3.4,0.2,5.2l-6.1-0.3h-0.3c0.1-1.1,0.1-2.3,0.1-3.4C62.7,98.7,62.7,98,62.7,97.3z M62.1,85.3 c-0.2-1.6-0.4-3.1-0.7-4.7c1.6,0.5,3.1,1.1,4.7,1.7c0.4,1.5,0.8,3,1.1,4.5c-1.7-0.5-3.4-0.9-5.1-1.3C62.1,85.4,62.1,85.4,62.1,85.3 L62.1,85.3z M58.7,69.4c-0.4-1.2-0.8-2.4-1.2-3.6c1.1,0.8,2.1,1.7,3.2,2.6c0.6,1.2,1.2,2.5,1.8,3.8c-1.2-0.8-2.4-1.5-3.6-2.3 C58.8,69.8,58.8,69.6,58.7,69.4z M57.2,65.1c-0.5-1.2-0.9-2.4-1.4-3.6c0.9,0.9,1.7,1.8,2.5,2.7c0.7,1.1,1.3,2.2,1.8,3.3 C59.2,66.7,58.2,65.9,57.2,65.1L57.2,65.1z M66.2,74.8c-1-0.7-2-1.4-3-2.1c-0.5-1.1-1-2.3-1.6-3.4c0.9,0.8,1.8,1.7,2.7,2.5 C64.9,72.8,65.6,73.8,66.2,74.8L66.2,74.8z M78,87.1l0.6,0.8c-1-0.6-2-1.2-3-1.7c-0.5-1-1.1-2-1.7-3c0.9,0.7,1.8,1.4,2.7,2.1 C77.1,85.9,77.5,86.5,78,87.1z M82.9,91.5c0.7,0.8,1.3,1.6,1.9,2.4c-1-0.6-2-1.1-3-1.6c-0.5-1-1.1-1.9-1.7-2.8 C81,90.1,81.9,90.8,82.9,91.5L82.9,91.5z M89.1,97.3c0.7,0.8,1.3,1.6,2,2.4c-1-0.6-2-1-3-1.5c-0.6-0.9-1.1-1.9-1.7-2.8 C87.3,96,88.2,96.6,89.1,97.3z M95.3,102.8c0.7,0.8,1.4,1.5,2,2.3c-1-0.5-1.9-1-2.9-1.4c-0.6-0.9-1.1-1.8-1.7-2.6 C93.6,101.7,94.4,102.2,95.3,102.8z M101.6,108.4c0.7,0.7,1.3,1.4,1.9,2.2c-0.9-0.5-1.9-1-2.8-1.4c-0.6-0.9-1.1-1.7-1.7-2.5 C99.9,107.2,100.7,107.8,101.6,108.4z M107.5,113.4l0.3,0.2c0.7,0.7,1.3,1.4,2,2.2c-0.9-0.5-1.8-0.9-2.7-1.3 c-0.6-0.8-1.1-1.6-1.7-2.4C106,112.4,106.7,112.9,107.5,113.4L107.5,113.4z M114.1,118.9c0.7,0.7,1.3,1.4,1.9,2.1 c-0.9-0.5-1.8-0.9-2.8-1.3c-0.6-0.8-1.1-1.6-1.7-2.4c0.3,0.2,0.6,0.3,0.8,0.5C113,118.1,113.5,118.5,114.1,118.9L114.1,118.9z M120.2,124c3.5,3.5,6.5,7.4,8.9,11.7c3.5,6.2,5.9,13,7.3,20c3.1,16,1.2,32.4-1.1,46.3c-2,12-4.7,24.2-7.2,35.9 c-3.8,17.4-7.7,35.3-9.6,53.2c-0.4,3.7-0.6,7.4-0.8,11.1c-2-1.4-3.9-2.8-5.8-4.2c0.1-5.7,0.4-11.1,0.9-16.1 c1.7-17.8,5.6-35.5,9.3-52.7c2.4-11,4.9-22.4,6.8-33.7c2.3-13.5,4.2-29.4,1.4-45.1c-1.2-6.8-3.5-13.4-6.7-19.6 c-1.6-3-3.5-5.9-5.6-8.5C118.6,122.9,119.4,123.4,120.2,124L120.2,124z M105.7,319.3c1.2,1.4,2.3,2.8,3.6,4.1 c0.4,1.6,0.8,3.2,1.2,4.8c-1.1-1.4-2.2-2.8-3.3-4.2C106.7,322.4,106.2,320.8,105.7,319.3z M101.6,313.3c-0.6-1.5-1.1-3.1-1.6-4.7 c1.1,1.3,2.2,2.6,3.4,3.9c0.4,1.6,0.8,3.2,1.2,4.8c-0.9-1.1-1.8-2.3-2.7-3.4L101.6,313.3z M68.2,89.9c-0.1-0.8-0.3-1.6-0.5-2.4 c1.6,0.4,3.1,0.9,4.7,1.4c0.4,1.4,0.8,2.8,1.2,4.3c-1.7-0.4-3.4-0.8-5.1-1.1C68.5,91.4,68.4,90.6,68.2,89.9z M70.9,84.3 c0.5,1.3,1,2.7,1.4,4c-1.5-0.5-3.1-1-4.6-1.4c-0.3-1.5-0.7-3-1.1-4.4C68.1,83.1,69.5,83.7,70.9,84.3z M66.5,82 c-0.4-1.4-0.8-2.8-1.3-4.2c1.3,0.7,2.5,1.4,3.8,2.1c0.6,1.2,1.1,2.5,1.7,3.8C69.3,83.2,67.9,82.6,66.5,82z M286.7,349l1.3-1 c0.6,0,1.2-0.1,1.9-0.1l-1.2,1.2L286.7,349z M89.7,119.9c-0.1-1.6-0.3-3.2-0.5-4.8c1.8,0.1,3.5,0.2,5.3,0.4c0.7,3.2,1.3,6.4,1.6,9.6 c1.3,13.1-0.5,26.4-2.5,37.7c-1.4,7.8-3,15.7-4.6,23.3c-3.3,16.1-6.8,32.8-7.7,49.5c-0.7,12.6,0.2,25.2,2.9,37.5 c-1.4-1.5-2.7-3-4-4.6c-3.7-13.7-5.2-28-4.6-42.2c0.8-16.4,4.2-32.8,7.4-48.7c1.4-7,2.9-14.2,4.1-21.3 C88.9,145.4,90.7,132.6,89.7,119.9L89.7,119.9z M82.9,114.5c-0.1-1.6-0.3-3.3-0.4-4.9c1.8,0.1,3.6,0.2,5.3,0.4 c0.3,1.5,0.6,3,0.8,4.5C86.7,114.5,84.8,114.5,82.9,114.5L82.9,114.5z M80.2,99.7c0.4,1.4,0.7,2.9,1,4.4c-1.8-0.2-3.6-0.4-5.4-0.6 c-0.2-1.6-0.3-3.2-0.6-4.8C76.9,99,78.6,99.3,80.2,99.7z M75.1,98.3c-0.2-1.3-0.4-2.6-0.7-3.9c0-0.2-0.1-0.4-0.2-0.7 c1.6,0.4,3.1,0.8,4.6,1.2c0.4,1.3,0.9,2.7,1.2,4.1c0,0,0,0,0,0.1C78.4,98.9,76.7,98.6,75.1,98.3z M80.7,99.8 c1.5,0.3,3.1,0.7,4.6,1.1c0.3,0.9,0.7,1.9,1,2.8c0.1,0.4,0.2,0.8,0.3,1.2c-1.6-0.3-3.2-0.5-4.9-0.7C81.3,102.7,81,101.2,80.7,99.8z M81.3,104.5c0.3,1.5,0.5,3.1,0.7,4.7c-1.9-0.1-3.9-0.2-5.8-0.2c-0.1-1.7-0.2-3.4-0.3-5C77.6,104.1,79.4,104.3,81.3,104.5z M81.7,104.6c1.7,0.2,3.3,0.5,5,0.8c0.4,1.4,0.8,2.8,1.1,4.3c-1.8-0.2-3.5-0.3-5.3-0.4C82.2,107.6,82,106.1,81.7,104.6L81.7,104.6z M87.1,105.4c1.5,0.3,3,0.6,4.5,1c0.2,0.6,0.5,1.2,0.7,1.8s0.5,1.4,0.7,2.1c-1.6-0.3-3.2-0.5-4.8-0.7 C87.9,108.2,87.5,106.8,87.1,105.4z M88.3,110.1c1.6,0.2,3.3,0.4,4.9,0.7c0.4,1.4,0.8,2.8,1.1,4.2c-1.7-0.2-3.5-0.3-5.2-0.3 C88.8,113.1,88.6,111.6,88.3,110.1z M98.5,112.8c0.4,0.9,0.7,1.8,1,2.8c-1.6-0.3-3.1-0.4-4.7-0.6c-0.3-1.4-0.7-2.8-1.1-4.1 c1.5,0.3,3,0.6,4.4,0.9C98.2,112.2,98.3,112.5,98.5,112.8z M81.6,235.5c0.9-16.6,4.4-33.3,7.7-49.4c1.6-7.6,3.2-15.5,4.6-23.3 c2-11.3,3.8-24.6,2.5-37.8c-0.3-3.2-0.8-6.4-1.6-9.5c1.6,0.2,3.2,0.4,4.8,0.6c1.5,4.6,2.5,9.2,3.1,14c1.6,13.6-0.2,27.4-2.2,39.1 c-1.5,8.5-3.3,17.1-5,25.4c-3.4,16.3-7,33.2-8.1,50.1c-0.7,11.2-0.2,22.4,1.6,33.4c-1.5-1.5-2.9-3-4.4-4.6 C81.9,261.1,80.9,248.3,81.6,235.5z M104.6,117.4c2.4,5.7,4,11.7,4.8,17.8c1.9,14.1,0.1,28.4-2,40.6c-1.6,9.2-3.5,18.5-5.4,27.4 c-3.5,16.6-7.1,33.7-8.4,50.8c-0.7,9.7-0.5,19.5,0.6,29.2c-1.6-1.5-3.1-3-4.7-4.5c-1.9-11.2-2.4-22.6-1.7-33.9 c1.1-16.9,4.6-33.7,8.1-50.1c1.7-8.3,3.6-16.9,5-25.4c2-11.7,3.9-25.6,2.2-39.3c-0.5-4.7-1.5-9.4-3-13.9c1.5,0.2,2.9,0.6,4.3,0.9 C104.5,117.2,104.6,117.3,104.6,117.4L104.6,117.4z M89.2,279.2c0.3,1.7,0.6,3.4,1,5.1c-1.4-1.5-2.7-3-4-4.5c-0.4-1.7-0.9-3.3-1.2-5 C86.3,276.2,87.7,277.7,89.2,279.2z M89.7,279.7c1.5,1.5,3.1,3,4.6,4.4c0.2,1.7,0.5,3.5,0.7,5.2c-1.5-1.5-2.9-3-4.4-4.5 C90.3,283.1,90,281.4,89.7,279.7L89.7,279.7z M94.8,284.6c1.6,1.5,3.2,2.9,4.9,4.4c0.1,1.7,0.3,3.5,0.5,5.3 c-1.6-1.4-3.1-2.9-4.6-4.4C95.3,288.1,95,286.4,94.8,284.6z M95.2,290.1c0.3,1.7,0.6,3.4,0.9,5.1c-1.4-1.4-2.7-2.9-4-4.4 c-0.4-1.7-0.8-3.4-1.2-5.1C92.3,287.2,93.7,288.6,95.2,290.1z M95.7,290.6c1.5,1.5,3,2.9,4.5,4.3c0.2,1.7,0.4,3.4,0.7,5.2 c-1.4-1.4-2.9-2.8-4.2-4.3C96.3,294,96,292.3,95.7,290.6L95.7,290.6z M100.7,295.3c1.6,1.5,3.3,2.9,5,4.3c0.1,1.7,0.3,3.5,0.4,5.3 c-1.6-1.4-3.2-2.9-4.7-4.4C101.2,298.8,100.9,297,100.7,295.3L100.7,295.3z M101,300.8c0.3,1.7,0.6,3.4,0.9,5.1 c-1.3-1.4-2.6-2.8-3.9-4.2c-0.4-1.7-0.8-3.4-1.2-5.1C98.2,298,99.6,299.4,101,300.8L101,300.8z M101.5,301.3 c1.5,1.5,3.1,2.9,4.7,4.3c0.2,1.7,0.4,3.5,0.7,5.2c-1.5-1.4-3-2.9-4.4-4.4C102.1,304.7,101.8,303,101.5,301.3L101.5,301.3z M106.7,306c1.6,1.4,3.3,2.8,5,4.2c0.1,1.8,0.2,3.5,0.4,5.3c-1.6-1.4-3.2-2.8-4.7-4.2C107.1,309.5,106.9,307.7,106.7,306z M107,311.5c0.3,1.7,0.6,3.5,0.9,5.2c-1.4-1.4-2.7-2.9-4-4.4c-0.4-1.7-0.8-3.4-1.2-5.1C104,308.7,105.5,310.1,107,311.5L107,311.5z M107.5,312c1.5,1.4,3.1,2.8,4.7,4.2c0.2,1.8,0.4,3.6,0.6,5.4c-1.5-1.4-3-2.8-4.4-4.3C108,315.5,107.7,313.7,107.5,312L107.5,312z M293.9,344.5l1.6-0.3l-1.1,1.2l-1.7,0.2L293.9,344.5z M292,345.7l-1.5,0.2l1.1-0.9l1.5-0.3L292,345.7z M305.4,338.8 c16.8-5.1,34.4-6.4,49.6-3.7c6,1.1,11.9,3,17.4,5.7c10.6,5.2,18.6,12.8,25.9,20c0.9,0.9,1.8,1.8,2.7,2.7l-2.5-2.1 c-9.2-7.7-17.4-13.8-27.4-18.2c-5.7-2.4-11.7-4.2-17.8-5.2c-15-2.6-32.8-1.7-50,2.4c-1,0.2-1.9,0.5-2.8,0.7l1.1-1.2 C302.9,339.6,304.1,339.2,305.4,338.8L305.4,338.8z M302.3,339.4l1-1.1c1.3-0.5,2.7-1.1,4-1.6c16.3-6,34.3-7.8,49.4-4.9 c6,1.1,11.9,3.2,17.3,6.2c10.1,5.6,17.3,13.6,24.5,22c0.7,0.8,1.5,1.7,2.1,2.6c-0.6-0.6-1.3-1.3-1.9-1.9c-7.3-7.3-15.4-14.8-26-20.1 c-5.6-2.7-11.5-4.6-17.6-5.7c-15.2-2.8-32.9-1.5-49.8,3.7C304.2,338.7,303.2,339,302.3,339.4L302.3,339.4z M401.6,364.7 c-1-0.8-2.1-1.5-3.1-2.3c-8.3-5.9-17.5-11.9-28.8-16.3c-5.8-2.2-11.8-3.8-17.9-4.7c-19-3-37.8-1-50.2,1.2L299,343l1.1-1.3 c1.1-0.3,2.3-0.6,3.4-0.9c17.1-4.1,34.8-5,49.8-2.4c6.1,1,12,2.7,17.6,5.2c10,4.4,18.2,10.4,27.3,18.1 C399.3,362.7,400.5,363.7,401.6,364.7L401.6,364.7z M299.9,341.4l-1.4,0.4l1.1-1l1.3-0.4L299.9,341.4z M299.4,342l-1,1.2l-1.5,0.3 c0.4-0.4,0.7-0.8,1.1-1.1C298.4,342.2,298.9,342.1,299.4,342L299.4,342z M296.1,343.6l-1.5,0.3l1.1-0.9l1.4-0.4L296.1,343.6z M296.3,344l1.6-0.3l-1.1,1.3l-1.7,0.2L296.3,344z M298.6,343.6l3.1-0.6c12.4-2.2,31-4.2,50-1.2c6.1,0.9,12,2.5,17.8,4.7 c11.3,4.3,20.5,10.4,28.7,16.2c1.3,0.9,2.6,1.9,3.9,2.8l0,0c-1.2-0.8-2.5-1.5-3.7-2.3c-7.7-4.6-18.1-10.4-30.2-14.4 c-5.9-1.9-11.9-3.3-18-4.2c-15-2.2-32-2.2-50.3,0l-2.3,0.3C297.8,344.5,298.2,344,298.6,343.6L298.6,343.6z M309.2,334.6 c15.8-6.9,34.2-9.2,49.2-6.2c6,1.2,11.8,3.4,17.1,6.7c9.6,6,16.2,14.3,23.1,23.9c0.6,0.8,1.1,1.5,1.6,2.3c-0.5-0.6-0.9-1.1-1.4-1.7 c-7.2-8.4-14.5-16.4-24.6-22c-5.4-3-11.3-5.1-17.4-6.3c-15.2-2.9-33.2-1.1-49.6,4.9c-1.1,0.4-2.1,0.8-3.1,1.2l0.9-0.9 C306.2,335.9,307.6,335.2,309.2,334.6L309.2,334.6z M305.7,335.7l0.7-0.7c1.5-0.9,3-1.7,4.6-2.5c15.5-7.9,33.8-10.7,49-7.4 c6.1,1.3,11.8,3.7,16.9,7.2c9.3,6.4,15.3,15.4,21.7,25.8c0.4,0.6,0.8,1.3,1.2,1.9c-0.3-0.4-0.6-0.8-0.9-1.2 c-7-9.5-13.5-17.9-23.2-24c-5.3-3.2-11.2-5.5-17.3-6.7c-15.1-3.1-33.6-0.8-49.4,6.2C307.8,334.7,306.7,335.2,305.7,335.7 L305.7,335.7z M303,337.9l-0.9,0.4l0.8-0.7l0.8-0.4L303,337.9z M302.3,338.7l-0.9,1l-1.2,0.4l0.9-0.9L302.3,338.7z M299.3,340.3 c-0.3,0.1-0.7,0.2-1,0.4l0.8-0.7l0.9-0.4L299.3,340.3z M298.6,341.1l-0.9,0.9l-1.3,0.4l1-0.8C297.7,341.4,298.1,341.2,298.6,341.1 L298.6,341.1z M295.4,342.6l-1,0.3l0.9-0.6l0.9-0.4L295.4,342.6z M294.7,343.3c-0.3,0.3-0.6,0.6-1,0.9l-1.3,0.3l1-0.8L294.7,343.3z M291.4,344.6l-1.1,0.2l0.9-0.5l1.1-0.3L291.4,344.6z M290.6,345.2l-1,0.8l-1.4,0.2l1-0.7L290.6,345.2z M288.9,346.6l-1.1,0.9 l-1.6,0.1l1.2-0.8L288.9,346.6z M287.2,346.4l-1.1,0.2l0.9-0.5l1.1-0.3C287.7,346,287.4,346.2,287.2,346.4L287.2,346.4z M286.3,347 l-1,0.7l-1.5,0.1l1.1-0.6L286.3,347z M284.6,348.2l-1.2,0.8h-1.7l1.2-0.7L284.6,348.2z M282.8,347.9l-1.2,0.1l0.9-0.4l1.2-0.2 L282.8,347.9z M281.9,348.4l-1.2,0.6h-1.5l1.1-0.5L281.9,348.4z M276.2,350.5l1.9,0.1l-1.3,0.8l-2-0.2L276.2,350.5z M274,351.1 l-1.9-0.2l1.3-0.5l1.8,0.1L274,351.1z M277,350.1l1.3-0.6h1.8l-1.2,0.7L277,350.1z M278.2,349.1h-1.3l1-0.4l1.3-0.1L278.2,349.1z M277.2,349.6l-1.1,0.5l-1.6-0.1l1.2-0.4L277.2,349.6z M273.4,350l-1.3-0.1l1-0.3h1.3L273.4,350z M272.4,350.3l-1.2,0.4l-1.7-0.2 l1.2-0.3L272.4,350.3z M270.3,351.1c-2.9,1.1-5.7,2.2-8.5,3.3c-5.6,2.1-10.9,4.2-16.3,6.1c-18.2,6.5-38.1,12.1-60.2,10.1 c-20.8-1.9-42.7-12.1-60.4-27.5c-0.2-1.8-0.4-3.6-0.6-5.5c16.8,13.5,36.5,22.7,55.9,25.5c22.3,3.3,42.8-0.5,61.5-5.1 c6.7-1.6,13.2-3.5,20.1-5.4l6.5-1.8L270.3,351.1z M268.4,350.4l-1.4-0.2l1-0.2l1.4,0.1L268.4,350.4z M267.3,350.7l-5.5,1.5 c-6.9,1.9-13.4,3.7-20.1,5.4c-18.8,4.6-39.2,8.4-61.4,5.1c-19.4-2.9-39.3-12.1-56-25.7c-0.1-1.8-0.3-3.7-0.4-5.5 c15.6,11.7,33.4,20.1,51.3,23.8c22.8,4.6,44.5,2.5,62.7,0c8.4-1.2,16.7-2.7,25.5-4.3l2.1-0.4L267.3,350.7z M118.6,327.2 c1.6,1.3,3.2,2.6,4.9,3.9c0.1,1.8,0.2,3.7,0.3,5.5c-1.6-1.3-3.1-2.6-4.6-3.9C119,330.9,118.8,329.1,118.6,327.2z M118.7,332.2 c-1.5-1.4-3-2.8-4.5-4.2c-0.3-1.8-0.6-3.5-0.9-5.3c1.6,1.4,3.1,2.8,4.7,4.1C118.3,328.6,118.5,330.4,118.7,332.2L118.7,332.2z M263.3,350.5c-8.8,1.6-17,3.1-25.5,4.3c-18.2,2.6-39.8,4.6-62.6,0c-17.9-3.7-35.8-12.1-51.4-23.9c-0.1-1.9-0.1-3.7-0.1-5.6 c14,10.1,29.7,17.6,46.4,22.1c23.3,6,45.4,5.9,63.9,5c9.5-0.5,18.9-1.3,28.6-2.2l1.4,0.2L263.3,350.5z M123.5,330.6 c-1.7-1.3-3.3-2.6-4.9-3.9c-0.2-1.8-0.3-3.7-0.4-5.6c1.7,1.3,3.4,2.6,5.2,3.9C123.3,326.8,123.4,328.7,123.5,330.6L123.5,330.6z M118,326.2c-1.6-1.4-3.2-2.8-4.8-4.2c-0.2-1.8-0.5-3.6-0.7-5.5c1.7,1.4,3.3,2.8,5,4.1C117.7,322.6,117.9,324.4,118,326.2L118,326.2 z M112.9,322.2c0.2,1.7,0.5,3.5,0.8,5.2c-1.4-1.4-2.7-2.8-4-4.3c-0.4-1.7-0.8-3.4-1.1-5.1C110,319.5,111.4,320.9,112.9,322.2 L112.9,322.2z M118.7,332.9c0.2,1.8,0.5,3.5,0.8,5.3c-1.4-1.4-2.8-2.8-4.1-4.2c-0.4-1.7-0.8-3.5-1.1-5.2 C115.8,330.1,117.3,331.5,118.7,332.9z M119.2,333.3c1.5,1.3,3,2.6,4.6,3.9c0.1,1.8,0.3,3.6,0.5,5.4c-1.5-1.3-2.9-2.6-4.3-3.9 C119.8,336.9,119.5,335.1,119.2,333.3L119.2,333.3z M124.4,343.3c0.2,1.8,0.5,3.6,0.8,5.4c-1.3-1.3-2.6-2.6-3.9-3.9 c-0.4-1.7-0.7-3.5-1.1-5.3C121.6,340.8,123,342,124.4,343.3L124.4,343.3z M124.9,343.7c5.3,4.6,10.9,8.7,16.8,12.3 c14.1,8.5,29.1,13.7,43.6,15c22.2,2,42.1-3.7,60.4-10.1c5.4-1.9,10.9-4,16.3-6.1c3.1-1.2,6.2-2.4,9.3-3.5l2,0.2 c-3.5,1.7-7,3.5-10.4,5.2c-4.4,2.2-9,4.5-13.5,6.7c-17.6,8.3-36.9,15.9-59,15.1c-22.5-0.8-46.2-11.8-64.6-29.3 C125.4,347.4,125.2,345.6,124.9,343.7L124.9,343.7z M190.3,378.9c22.2,0.8,41.6-6.8,59.2-15.2c4.5-2.1,9.1-4.5,13.5-6.7 c3.6-1.8,7.3-3.7,11-5.5l2.1,0.2c-3.9,2.4-7.8,4.8-11.6,7.2s-7.6,4.8-11.5,7.2c-16.9,10.2-35.7,19.7-57.8,20.2h-1.3 c-23.4,0-48.7-12-67.2-31.2c-0.4-1.7-0.7-3.5-1-5.3C144.2,367.2,167.9,378.1,190.3,378.9L190.3,378.9z M151.3,374.8 c14.4,8.1,29.6,12.3,44,12c22.2-0.4,41-10,58-20.2c3.8-2.3,7.7-4.8,11.5-7.2c4-2.5,8-5,12-7.5l2.2,0.2c-4.1,3.1-8.2,6.2-12.2,9.3 c-3.2,2.5-6.6,5.1-9.9,7.6c-16.1,12.1-34.1,23.5-56.5,25.2c-25.3,1.9-53.1-11.2-72.1-33.1c-0.4-1.7-0.9-3.4-1.2-5.1 C134.2,363.4,142.4,369.7,151.3,374.8L151.3,374.8z M277.5,351.5l1.4-0.8l2,0.1l-1.3,1L277.5,351.5z M279.5,350.3l1.3-0.8h1.9 l-1.3,0.9L279.5,350.3z M283.5,349.4h1.9l-1.3,1.1l-2-0.1L283.5,349.4z M284.1,349l1.3-0.9l1.8-0.1l-1.2,1L284.1,349z M288.5,347.4 l1.2-1l1.7-0.2l-1.1,1.1L288.5,347.4z M292.2,346.1l1.8-0.2l-1.2,1.3l-1.8,0.1L292.2,346.1z M294.6,345.8l1.8-0.2 c-0.4,0.5-0.8,0.9-1.1,1.4l-1.9,0.1L294.6,345.8z M297,345.4l2.7-0.4c18.3-2.2,35.2-2.2,50.2,0c6.1,0.9,12.1,2.3,18,4.2 c12.1,4,22.5,9.7,30.1,14.3c1.4,0.8,2.8,1.7,4.1,2.5v0.1c-1.3-0.7-2.6-1.4-4-2c-10.1-5.2-20.7-9.3-31.6-12.4 c-6-1.6-12.1-2.9-18.2-3.7c-14.7-2-31.7-2.5-50.5-1.3l-2,0.1L297,345.4z M398.9,357.8c-6.4-10.4-12.4-19.5-21.8-25.9 c-5.2-3.5-11-6-17.1-7.2c-15.2-3.3-33.7-0.5-49.2,7.4c-1.1,0.5-2.1,1.1-3.2,1.7l0.4-0.3c1.6-1.1,3.2-2.1,4.9-3.1 c15-8.8,33.7-12.1,48.8-8.6c6.1,1.3,11.8,3.9,16.7,7.7c9.7,7.4,15.6,18.6,20.3,27.7l0.7,1.4C399.2,358.2,399,358,398.9,357.8 L398.9,357.8z M305,335.8l-0.4,0.4l-0.5,0.2l0.5-0.4L305,335.8z M301.4,338.3l-0.4,0.4l-0.5,0.2l0.5-0.4L301.4,338.3z M297.6,340.6 l-0.5,0.4l-0.6,0.2l0.5-0.4L297.6,340.6z M293.7,342.8l-0.5,0.4c-0.2,0.1-0.4,0.1-0.6,0.2c0.2-0.1,0.3-0.2,0.5-0.3L293.7,342.8z M289.6,344.8l-0.5,0.3l-0.7,0.2l0.5-0.3L289.6,344.8z M285.4,346.5l-0.6,0.3l-0.7,0.1l0.6-0.3L285.4,346.5z M280.9,347.9l-0.6,0.3 l-0.8,0.1l0.6-0.2L280.9,347.9z M276.2,348.9l-0.6,0.2h-0.9l0.6-0.2L276.2,348.9z M271.3,349.7l-0.6,0.2h-0.8l0.6-0.1L271.3,349.7z M266.1,350l-0.5,0.1l-0.8-0.1h0.5H266.1z M260.7,349.9c-9,0.8-17.8,1.6-26.6,2c-18.5,0.9-40.5,1-63.8-5 c-16.7-4.5-32.5-12.1-46.6-22.2c0-1.8,0-3.6,0-5.5c12.7,8.7,26.6,15.5,41.3,20.2c18.9,5.9,38.9,9,65.1,10.1 c9.8,0.4,19.6,0.4,29.6,0.3L260.7,349.9z M123.3,324.4c-1.8-1.3-3.5-2.6-5.2-3.9c-0.1-1.8-0.2-3.6-0.2-5.4c1.8,1.3,3.6,2.6,5.5,3.9 C123.3,320.8,123.3,322.6,123.3,324.4z M117.6,320.1c-1.7-1.3-3.4-2.7-5.1-4.2c-0.2-1.8-0.3-3.6-0.4-5.4c1.7,1.4,3.5,2.8,5.3,4.1 C117.5,316.5,117.5,318.3,117.6,320.1z M112.1,310c-0.1-1.8-0.2-3.6-0.2-5.3c1.8,1.4,3.7,2.8,5.6,4.1c0,1.8,0,3.6,0,5.4 C115.6,312.8,113.8,311.4,112.1,310z M111.6,309.6c-1.7-1.4-3.4-2.8-5-4.3c-0.2-1.8-0.3-3.5-0.5-5.3c1.7,1.4,3.5,2.9,5.2,4.2 C111.4,306,111.5,307.8,111.6,309.6L111.6,309.6z M106.1,299.5c-0.1-1.8-0.2-3.6-0.3-5.4c1.8,1.5,3.7,2.9,5.5,4.3c0,1.8,0,3.5,0,5.4 C109.6,302.3,107.8,300.9,106.1,299.5L106.1,299.5z M105.6,299.1c-1.7-1.4-3.4-2.9-5-4.4c-0.2-1.8-0.4-3.5-0.5-5.3 c1.7,1.5,3.5,2.9,5.2,4.4C105.4,295.5,105.5,297.3,105.6,299.1L105.6,299.1z M100.1,288.6c-0.6-8.4-0.5-16.8,0.2-25.2 c1.4-17.3,5.1-34.6,8.7-51.4c2.1-9.7,4.2-19.6,5.9-29.5c2.1-12.6,4-27.5,1.8-42.2c-0.9-6.4-2.8-12.6-5.5-18.5 c-0.5-1.1-1.1-2.2-1.6-3.2c1.2,0.4,2.3,0.9,3.5,1.4c1.4,2.1,2.8,4.3,3.9,6.6c2.9,6,5,12.3,6.1,18.9c2.5,15.1,0.6,30.4-1.6,43.5 c-1.8,10.6-4.1,21.3-6.3,31.6c-3.7,17-7.4,34.5-9,52.1c-0.6,6.8-0.8,13.6-0.6,20.4C103.6,291.6,101.9,290.1,100.1,288.6L100.1,288.6 z M110.7,122c2.7,5.8,4.5,12,5.4,18.4c2.2,14.6,0.3,29.4-1.8,42c-1.7,9.9-3.8,19.9-5.9,29.5c-3.6,16.8-7.3,34.1-8.7,51.5 c-0.7,8.3-0.7,16.6-0.2,24.8c-1.7-1.5-3.3-2.9-4.9-4.5c-1.2-9.8-1.4-19.8-0.7-29.6c1.2-17.1,4.9-34.2,8.4-50.7 c1.9-9,3.9-18.3,5.4-27.5c2.1-12.2,3.9-26.6,2-40.7c-0.8-6.2-2.5-12.2-4.9-17.9l0,0c1.3,0.3,2.6,0.7,3.9,1.2 C109.5,119.5,110.2,120.7,110.7,122z M104.7,116.7c-0.5-1.2-1-2.3-1.6-3.3c1.2,0.4,2.4,0.9,3.6,1.4c0.6,1,1.3,2,1.8,3 C107.3,117.4,106,117,104.7,116.7z M104.2,116.6c-1.4-0.3-2.8-0.6-4.3-0.9c-0.3-1-0.7-2-1.1-3c-0.1-0.2-0.2-0.5-0.3-0.7 c1.3,0.3,2.7,0.8,4,1.2C103.1,114.3,103.7,115.4,104.2,116.6L104.2,116.6z M98.3,111.5c-0.5-1.2-1-2.3-1.6-3.4 c1.2,0.4,2.4,0.9,3.6,1.4c0.7,1,1.3,2,1.9,3.1C101,112.2,99.7,111.8,98.3,111.5L98.3,111.5z M97.8,111.3c-1.4-0.3-2.9-0.7-4.3-0.9 c-0.2-0.8-0.5-1.5-0.8-2.3c-0.2-0.5-0.4-1-0.6-1.6c1.4,0.4,2.7,0.8,4.1,1.2C96.8,109,97.3,110.1,97.8,111.3L97.8,111.3z M92,106.1 c-0.5-1.2-1-2.4-1.5-3.5c1.2,0.5,2.5,1,3.7,1.5c0.6,1,1.2,2.1,1.8,3.2C94.6,106.8,93.3,106.4,92,106.1L92,106.1z M91.4,105.9 c-1.5-0.4-3-0.7-4.4-1c-0.1-0.5-0.2-0.9-0.4-1.4c-0.3-0.9-0.6-1.7-0.9-2.6c1.4,0.4,2.8,0.8,4.1,1.3C90.4,103.5,91,104.7,91.4,105.9 L91.4,105.9z M85.6,100.5c-0.5-1.3-1-2.5-1.5-3.7c1.2,0.5,2.5,1,3.7,1.6c0.6,1.1,1.2,2.2,1.8,3.3C88.3,101.3,86.9,100.9,85.6,100.5 L85.6,100.5z M85,100.4c-1.5-0.4-3-0.8-4.5-1.1c0-0.1-0.1-0.2-0.1-0.3c-0.3-1.3-0.7-2.6-1.2-3.8c1.4,0.4,2.8,0.9,4.2,1.4 C84.1,97.8,84.6,99.1,85,100.4L85,100.4z M79.2,94.7c-0.4-1.3-0.9-2.6-1.4-3.8c1.3,0.5,2.5,1.1,3.8,1.7c0.6,1.1,1.2,2.3,1.8,3.5 C81.9,95.6,80.6,95.1,79.2,94.7L79.2,94.7z M78.7,94.6c-1.5-0.4-3-0.8-4.6-1.2c-0.3-1.4-0.7-2.9-1.2-4.3c1.4,0.5,2.8,1,4.2,1.6 C77.7,91.9,78.2,93.2,78.7,94.6L78.7,94.6z M72.8,88.6c-0.4-1.3-0.9-2.7-1.4-4c1.3,0.6,2.6,1.2,3.8,1.9c0.6,1.2,1.2,2.3,1.7,3.6 C75.6,89.5,74.2,89,72.8,88.6L72.8,88.6z M73.7,93.7l0.2,0.9c0.3,1.2,0.5,2.4,0.7,3.7c-1.8-0.3-3.7-0.5-5.5-0.7 c-0.1-1.7-0.3-3.3-0.5-4.9C70.4,92.9,72.1,93.3,73.7,93.7z M74.7,98.7c0.2,1.6,0.4,3.2,0.6,4.8c-2-0.2-3.9-0.3-5.9-0.4 c0-1.7-0.1-3.4-0.2-5.2C71,98.2,72.9,98.4,74.7,98.7L74.7,98.7z M75.4,103.9c0.2,1.7,0.3,3.3,0.3,5c-2.1,0-4.2,0-6.3,0 c0-1.5,0.1-2.9,0.1-4.4c0-0.3,0-0.6,0-1C71.4,103.7,73.4,103.8,75.4,103.9L75.4,103.9z M75.7,109.4c0,0.1,0,0.2,0,0.2 c0.1,1.7,0.1,3.3,0,5c-2.2,0.1-4.5,0.2-6.8,0.3c0.2-1.9,0.3-3.7,0.3-5.6C71.5,109.4,73.6,109.4,75.7,109.4z M76.2,109.6 c0-0.1,0-0.2,0-0.2c2,0,3.9,0.1,5.8,0.2c0.2,1.6,0.3,3.2,0.4,4.9c-2.1,0-4.2,0.1-6.2,0.2C76.2,113,76.2,111.3,76.2,109.6L76.2,109.6 z M82.5,114.9c0.7,12.1-1.1,24.3-2.9,34.6c-1.1,6.4-2.4,12.9-3.7,19.1c-3.2,15.7-6.5,32-7.1,48.2c-0.6,15.3,1.4,30.5,6,45.1 c-1.2-1.5-2.3-3-3.4-4.6c-6-15.9-8.8-32.8-8.3-49.8c0.4-16,3.7-32,6.8-47.6c1.1-5.6,2.3-11.3,3.3-17c1.8-9.2,2.8-18.6,3.2-28 C78.3,115,80.4,115,82.5,114.9L82.5,114.9z M69.2,216.9c0.6-16.2,3.9-32.4,7.1-48.1c1.3-6.3,2.6-12.8,3.7-19.2 c1.8-10.3,3.6-22.6,2.9-34.7c1.9,0,3.8,0,5.8,0.1c0.2,1.6,0.4,3.2,0.5,4.8c1,12.7-0.8,25.4-2.7,36.2c-1.2,7.1-2.7,14.3-4.2,21.3 c-3.3,15.9-6.6,32.4-7.4,48.8c-0.7,14,0.8,27.9,4.3,41.4c-1.3-1.5-2.5-3-3.7-4.5C70.8,248.2,68.6,232.6,69.2,216.9L69.2,216.9z M77.5,266.3c0.7,0.9,1.5,1.7,2.2,2.6c0.4,1.6,0.9,3.1,1.4,4.7c-1.1-1.4-2.2-2.9-3.3-4.3c-0.6-1.5-1.1-3.1-1.6-4.6 C76.6,265.2,77,265.8,77.5,266.3L77.5,266.3z M80.3,269.7c1.3,1.5,2.6,3,3.9,4.4c0.4,1.6,0.8,3.3,1.2,4.9c-1-1.2-2-2.3-2.9-3.5 c-0.2-0.3-0.5-0.6-0.7-0.9C81.3,272.9,80.8,271.3,80.3,269.7L80.3,269.7z M82.2,275.7c1.2,1.4,2.3,2.8,3.5,4.2 c0.4,1.6,0.9,3.1,1.3,4.7c-1.1-1.4-2.2-2.9-3.3-4.3C83.2,278.8,82.7,277.3,82.2,275.7z M86.4,280.7c1.3,1.5,2.6,2.9,3.9,4.4 c0.4,1.7,0.7,3.3,1.2,4.9c-1.2-1.5-2.5-2.9-3.7-4.4C87.3,284,86.8,282.3,86.4,280.7L86.4,280.7z M91.7,290.9 c0.4,1.6,0.9,3.1,1.3,4.7l-0.8-1c-0.8-1.1-1.7-2.2-2.5-3.3c-0.6-1.5-1.1-3.1-1.6-4.6C89.3,288.1,90.5,289.5,91.7,290.9z M92.4,291.7 c1.3,1.5,2.6,2.9,3.9,4.3c0.3,1.7,0.7,3.3,1.1,5c-1.2-1.4-2.5-2.9-3.7-4.4C93.3,295,92.7,293.3,92.4,291.7L92.4,291.7z M97.7,301.9 c0.4,1.6,0.8,3.2,1.3,4.8c-0.6-0.8-1.2-1.6-1.8-2.4l-1.4-1.9c-0.6-1.5-1.1-3.1-1.6-4.7C95.3,299.1,96.4,300.5,97.7,301.9L97.7,301.9 z M98.3,302.6c1.2,1.4,2.5,2.7,3.8,4.1c0.3,1.7,0.7,3.3,1.1,5c-1.2-1.4-2.4-2.8-3.5-4.1C99.2,305.9,98.7,304.2,98.3,302.6 L98.3,302.6z M104.1,313.3c1.3,1.4,2.6,2.8,4,4.2c0.3,1.7,0.7,3.3,1.1,5c-1.3-1.4-2.5-2.8-3.7-4.3 C104.9,316.6,104.4,314.9,104.1,313.3L104.1,313.3z M109.9,324.1c1.3,1.4,2.6,2.8,4,4.1c0.3,1.7,0.6,3.4,1,5.1 c-1.3-1.4-2.5-2.8-3.7-4.2C110.7,327.4,110.2,325.7,109.9,324.1L109.9,324.1z M115.1,334.2c0.4,1.6,0.8,3.3,1.2,4.9 c-1.1-1.4-2.2-2.8-3.3-4.2c-0.5-1.6-1-3.2-1.5-4.8C112.6,331.5,113.8,332.8,115.1,334.2L115.1,334.2z M115.7,334.8 c1.3,1.4,2.7,2.8,4,4.1c0.3,1.8,0.6,3.5,1,5.2c-1.3-1.4-2.6-2.8-3.8-4.3C116.5,338.2,116.1,336.5,115.7,334.8L115.7,334.8z M120.9,345c0.4,1.7,0.8,3.3,1.2,5c-1.2-1.4-2.3-2.8-3.4-4.2c-0.5-1.6-1-3.2-1.5-4.8C118.4,342.3,119.6,343.7,120.9,345z M121.5,345.6c1.3,1.3,2.5,2.6,3.8,3.8c0.3,1.8,0.6,3.5,1,5.2c-1.2-1.3-2.4-2.6-3.5-3.9C122.3,349,121.9,347.3,121.5,345.6 L121.5,345.6z M126.5,355.4c0.4,1.7,0.8,3.4,1.2,5c-1.1-1.3-2.1-2.6-3.1-3.9c-0.5-1.6-1-3.2-1.5-4.9 C124.1,352.9,125.3,354.2,126.5,355.4L126.5,355.4z M127.9,361.4c0.4,1.6,0.9,3.1,1.3,4.6c-0.9-1.2-1.8-2.5-2.7-3.8 c-0.6-1.5-1.1-3-1.6-4.5C125.8,359,126.8,360.2,127.9,361.4L127.9,361.4z M128.5,362.1c19,21.6,46.7,34.4,71.9,32.6 c22.5-1.7,40.6-13.2,56.9-25.3c3.3-2.5,6.7-5.1,9.9-7.6c4.1-3.2,8.3-6.4,12.5-9.6l2.2,0.2c-4.2,3.7-8.4,7.6-12.4,11.4 c-2.9,2.7-5.8,5.5-8.8,8.1c-14.7,13.3-32.8,27.3-55.4,30.2c-26.4,3.4-56.7-10.9-75.4-35.2C129.4,365.4,128.9,363.7,128.5,362.1 L128.5,362.1z M280.3,351.8c0.5-0.3,0.9-0.7,1.4-1l2.1,0.1l-1.3,1.1L280.3,351.8z M284.4,351l2.1,0.1l-1.3,1.3l-2.2-0.2L284.4,351z M284.9,350.6l1.3-1.1h2l-1.2,1.2L284.9,350.6z M288.8,349.4h2c-0.4,0.5-0.8,0.9-1.2,1.4h-0.5l-1.6-0.1L288.8,349.4z M289.3,349 l1.3-1.2l1.9-0.1c-0.4,0.5-0.8,0.9-1.2,1.3L289.3,349z M293,347.6l2-0.1c-0.4,0.5-0.8,1-1.1,1.5h-2L293,347.6z M295.6,347.4 c0.8,0,1.6-0.1,2.4-0.2c18.8-1.2,35.8-0.7,50.4,1.3c6.1,0.8,12.2,2.1,18.1,3.7c10.9,3.1,21.5,7.2,31.6,12.4c1.5,0.7,2.9,1.5,4.3,2.2 v0.1c-1.4-0.6-2.8-1.2-4.3-1.8c-10.7-4.4-21.7-7.9-33-10.5c-5.7-1.3-11.9-2.4-18.4-3.2c-14.5-1.8-30.7-2.6-50.7-2.5h-1.7 C294.7,348.4,295.1,347.9,295.6,347.4L295.6,347.4z M402.9,367.1L402.9,367.1L402.9,367.1L402.9,367.1L402.9,367.1z M399,356.8 c-4.7-9.1-10.6-20.4-20.4-27.8c-5-3.8-10.8-6.4-16.9-7.7c-15.2-3.5-34-0.1-49.1,8.7c-0.8,0.5-1.6,1-2.5,1.5c1.5-1.1,3-2.2,4.5-3.2 c14.8-9.7,33.4-13.5,48.5-9.9c6.1,1.4,11.7,4.2,16.6,8.1c9.4,7.9,14.4,19.4,18.9,29.6L399,356.8L399,356.8z M230.2,349 c-26.1-1-46.2-4.1-65-10c-14.7-4.7-28.7-11.6-41.4-20.3c0.1-1.8,0.1-3.6,0.2-5.4c11.3,7.4,23.4,13.5,36.1,18.3 c19.3,7.2,40.3,12,66.2,15.1c10,1.2,20,2.1,30.1,2.7C247.6,349.4,238.9,349.4,230.2,349z M123.4,318.4c-1.9-1.3-3.7-2.6-5.5-3.9 c0-1.8,0-3.6,0-5.4c1.9,1.3,3.8,2.6,5.8,3.9C123.5,314.8,123.4,316.6,123.4,318.4z M117.8,308.6c0-1.8,0.1-3.6,0.2-5.4 c2,1.4,4,2.7,6,4c-0.1,1.8-0.3,3.6-0.4,5.4C121.7,311.2,119.8,309.9,117.8,308.6L117.8,308.6z M117.4,308.3 c-1.9-1.4-3.8-2.8-5.6-4.2c0-1.8-0.1-3.6,0-5.4c1.9,1.4,3.8,2.8,5.8,4.2C117.5,304.7,117.4,306.5,117.4,308.3L117.4,308.3z M123,131.1c3.2,6.1,5.5,12.7,6.7,19.4c2.8,15.5,0.9,31.4-1.4,44.9c-1.9,11.3-4.4,22.7-6.8,33.7c-3.7,17.2-7.6,35-9.3,52.7 c-0.5,4.9-0.8,10.2-0.9,15.8c-1.9-1.4-3.7-2.9-5.5-4.3c-0.2-6.9,0-13.8,0.6-20.7c1.6-17.5,5.3-35.1,9-52c2.2-10.3,4.5-21,6.3-31.6 c2.2-13.1,4.1-28.5,1.6-43.6c-1.1-6.6-3.1-13-6.1-19c-1.1-2.1-2.2-4.1-3.5-6.1c1,0.5,2,1,3,1.5C119.1,124.7,121.2,127.8,123,131.1 L123,131.1z M112.5,119.3c-1.1-0.5-2.2-0.9-3.3-1.3c-0.6-1-1.1-2-1.8-2.9c1.1,0.5,2.1,1,3.1,1.6 C111.2,117.5,111.9,118.4,112.5,119.3z M106.2,114.1c-1.1-0.5-2.2-0.9-3.4-1.3c-0.6-1-1.1-2-1.7-3c1,0.5,2.1,1,3.1,1.6 C104.9,112.3,105.6,113.2,106.2,114.1z M100,108.8c-1.1-0.5-2.3-0.9-3.4-1.3c-0.5-1.1-1.1-2.1-1.7-3.1c1.1,0.5,2.2,1.1,3.2,1.7 C98.7,106.9,99.3,107.8,100,108.8z M93.7,103.4c-1.2-0.5-2.3-1-3.5-1.4c-0.5-1.1-1.1-2.2-1.7-3.2c1.1,0.5,2.2,1.1,3.2,1.8 C92.4,101.4,93.1,102.4,93.7,103.4z M87.4,97.8c-1.2-0.6-2.4-1.1-3.6-1.5c-0.5-1.2-1.1-2.3-1.7-3.3c1.1,0.6,2.2,1.2,3.3,1.9 C86.2,95.8,86.8,96.8,87.4,97.8L87.4,97.8z M81.1,91.9c-1.2-0.6-2.4-1.1-3.6-1.6c-0.5-1.2-1-2.3-1.6-3.5c1.1,0.6,2.2,1.3,3.3,2 C79.9,89.8,80.5,90.9,81.1,91.9L81.1,91.9z M73.1,82.7c0.6,1,1.2,2,1.8,3.1c-1.2-0.6-2.4-1.2-3.6-1.8c-0.5-1.2-1-2.4-1.6-3.6 c1.1,0.7,2.2,1.4,3.3,2.2L73.1,82.7z M69.3,79.7c-0.2-0.5-0.5-1-0.8-1.5s-0.6-1.1-0.9-1.6c0.9,0.7,1.8,1.5,2.7,2.3 c0.7,0.9,1.3,1.8,2,2.8C71.3,80.9,70.3,80.3,69.3,79.7L69.3,79.7z M68.2,78.4l0.5,0.9c-1.2-0.7-2.4-1.4-3.6-2 c-0.4-1.2-0.9-2.3-1.3-3.5l-0.2-0.4c1.1,0.7,2.2,1.5,3.2,2.3C67.2,76.6,67.7,77.5,68.2,78.4L68.2,78.4z M62.8,73l0.4,1 c0.4,1,0.8,2,1.2,3c-1.4-0.7-2.8-1.3-4.2-2c-0.3-1.5-0.7-2.9-1.2-4.4C60.4,71.4,61.6,72.2,62.8,73z M64.6,77.6 c0.5,1.4,0.9,2.8,1.3,4.3c-1.5-0.6-3.1-1.1-4.6-1.7c-0.3-1.6-0.6-3.1-1-4.6C61.8,76.2,63.2,76.9,64.6,77.6L64.6,77.6z M67.3,87.3 c0.2,0.9,0.4,1.8,0.5,2.6c0.1,0.7,0.2,1.4,0.3,2.1c-1.8-0.3-3.7-0.7-5.5-1c-0.1-1.7-0.2-3.4-0.4-5.1C63.9,86.4,65.6,86.9,67.3,87.3 L67.3,87.3z M68.2,92.5c0.2,1.6,0.4,3.3,0.5,5c-2-0.2-4-0.4-6-0.6c0-1.8,0-3.6-0.1-5.3C64.5,91.8,66.3,92.2,68.2,92.5L68.2,92.5z M62.8,103.3l6.2,0.3c0,0.3,0,0.7,0,1c0,1.5,0,2.9-0.1,4.4H65h-2.9c0.2-1.9,0.3-3.8,0.4-5.7L62.8,103.3z M65.1,109.4h3.9 c-0.1,1.9-0.2,3.8-0.3,5.6l-1.4,0.1c-1.9,0.1-3.8,0.2-5.8,0.3c0.2-2,0.5-3.9,0.7-6H65.1z M67.2,115.5l1.3-0.1 c-0.6,7.4-1.8,14.6-2.9,21c-0.9,4.9-1.9,9.9-2.8,14.8c-3,15.4-6.2,31.3-6.5,47.1c-0.3,17.6,3,35.2,9.8,51.5 c-0.8-1.2-1.6-2.5-2.4-3.8c-8.7-17.7-13.3-37.2-13.2-57c0.1-15.7,3.2-31.4,6.2-46.7c0.8-4.1,1.6-8.3,2.4-12.4 c0.8-4.4,1.6-9.2,2.3-14.2L67.2,115.5z M56.8,198.4c0.3-15.8,3.4-31.7,6.5-47.1c1-4.8,1.9-9.8,2.8-14.8c1.2-6.4,2.3-13.6,2.9-21.1 c2.3-0.1,4.5-0.2,6.8-0.3c-0.3,9.4-1.4,18.7-3.2,27.9c-1,5.7-2.2,11.4-3.3,17c-3.1,15.5-6.3,31.6-6.8,47.6 c-0.5,16.5,2.2,32.9,7.8,48.4c-1-1.4-2-2.8-2.9-4.2C60.1,235,56.5,216.7,56.8,198.4z M71.1,258c0.4,1.1,0.9,2.3,1.3,3.4 c-0.7-1.1-1.4-2.2-2.1-3.4s-1.1-2.3-1.6-3.4C69.5,255.8,70.3,256.9,71.1,258z M72.1,259.3c1,1.4,2.1,2.8,3.2,4.2 c0.5,1.4,1,2.8,1.5,4.2c-1-1.4-2-2.9-3-4.3C73.2,262.1,72.6,260.8,72.1,259.3L72.1,259.3z M77.3,269.3c0.4,1.2,0.9,2.4,1.4,3.6 c-0.8-1.2-1.6-2.5-2.3-3.8c-0.5-1.1-1-2.2-1.6-3.3C75.6,267,76.4,268.1,77.3,269.3L77.3,269.3z M78.4,270.8c1,1.3,2,2.6,3,4 c0.5,1.4,1,2.9,1.5,4.3c-0.9-1.3-1.8-2.6-2.7-4C79.5,273.7,78.9,272.2,78.4,270.8L78.4,270.8z M83.4,280.5c0.4,1.2,0.9,2.4,1.4,3.6 c-0.7-1.1-1.4-2.1-2-3.2c-0.6-1.2-1.2-2.5-1.7-3.7C81.8,278.3,82.6,279.4,83.4,280.5L83.4,280.5z M84.4,281.8 c0.9,1.2,1.8,2.4,2.7,3.5l0.4,0.5c0.4,1.5,0.9,2.9,1.4,4.3c-1-1.3-1.9-2.7-2.8-4C85.5,284.7,84.9,283.2,84.4,281.8L84.4,281.8z M89.4,291.5c0.4,1.2,0.9,2.4,1.4,3.6c-0.7-1.2-1.5-2.3-2.2-3.5c-0.5-1.1-1-2.3-1.6-3.4C87.8,289.3,88.6,290.5,89.4,291.5 L89.4,291.5z M90.3,292.8c0.5,0.7,1.1,1.4,1.6,2.1s1,1.2,1.5,1.9c0.4,1.5,0.9,2.9,1.4,4.3c-0.9-1.3-1.9-2.7-2.8-4 C91.4,295.7,90.8,294.3,90.3,292.8L90.3,292.8z M95.3,302.5c0.4,1.2,0.9,2.4,1.4,3.6c-0.7-1.1-1.4-2.3-2.2-3.5 c-0.6-1.2-1.1-2.3-1.6-3.5C93.7,300.3,94.5,301.5,95.3,302.5L95.3,302.5z M96.2,303.8c0.2,0.2,0.4,0.5,0.6,0.7 c0.8,1.1,1.7,2.1,2.5,3.2c0.4,1.5,0.9,2.9,1.4,4.4c-1-1.3-1.9-2.7-2.8-4.1C97.3,306.6,96.7,305.2,96.2,303.8L96.2,303.8z M101.2,313.5c0.4,1.2,0.9,2.5,1.4,3.7c-0.8-1.2-1.5-2.3-2.2-3.5c-0.6-1.2-1.1-2.4-1.6-3.5C99.6,311.3,100.4,312.4,101.2,313.5 L101.2,313.5z M102.1,314.7c0.9,1.2,1.9,2.5,2.9,3.7c0.4,1.5,0.9,2.9,1.4,4.4c-0.9-1.2-1.7-2.5-2.6-3.7 C103.2,317.6,102.6,316.2,102.1,314.7L102.1,314.7z M106.5,323.7c0.1,0.1,0.2,0.3,0.3,0.4c0.4,1.2,0.9,2.4,1.3,3.6 c-0.7-1-1.3-2.1-1.9-3.1s-1.1-2.4-1.6-3.6C105.2,322,105.8,322.9,106.5,323.7L106.5,323.7z M107.7,325.3c1,1.3,2,2.6,3.1,3.9 c0.4,1.5,0.9,3,1.4,4.5l-0.4-0.6c-0.8-1.1-1.6-2.3-2.4-3.5C108.7,328.2,108.2,326.8,107.7,325.3L107.7,325.3z M111.4,333.3 c0.4,0.6,0.8,1.1,1.2,1.7c0.4,1.2,0.8,2.5,1.3,3.7c-0.8-1.2-1.6-2.5-2.3-3.7c-0.5-1.1-1-2.3-1.5-3.4 C110.5,332.2,110.9,332.8,111.4,333.3L111.4,333.3z M113.5,336.1c1,1.3,2,2.6,3.1,3.9c0.4,1.5,0.9,3,1.3,4.5 c-0.4-0.6-0.9-1.2-1.3-1.9s-1-1.5-1.5-2.2C114.5,339.1,114,337.6,113.5,336.1L113.5,336.1z M116.3,342.9c0.7,1,1.4,1.9,2.1,2.9 c0.4,1.3,0.9,2.6,1.4,3.8c-0.8-1.2-1.5-2.4-2.2-3.6c-0.6-1.2-1.1-2.4-1.6-3.7L116.3,342.9z M119.3,346.9c1,1.3,2.1,2.6,3.2,3.9 c0.4,1.6,0.9,3.1,1.4,4.6c-0.8-1-1.6-2.1-2.3-3.2l-0.7-1c-0.6-1.4-1.2-2.8-1.7-4.3L119.3,346.9z M124.2,356.6c0.4,1.3,0.9,2.6,1.4,4 c-0.8-1.3-1.6-2.5-2.4-3.8c-0.6-1.2-1.1-2.4-1.6-3.6C122.4,354.4,123.2,355.6,124.2,356.6L124.2,356.6z M129.6,367.1 c0.4,1.4,0.9,2.7,1.4,4c-0.7-1.1-1.4-2.2-2.1-3.4s-1.1-2.5-1.6-3.7C128,365.1,128.7,366.1,129.6,367.1L129.6,367.1z M130.4,368.1 c8.4,10.5,18.8,19.1,30.7,25.4c14.7,7.7,30,10.8,44.4,9c22.7-3,40.9-17,55.7-30.4c2.9-2.7,5.9-5.4,8.8-8.1 c4.1-3.9,8.3-7.8,12.7-11.6l2.3,0.2c-4.3,4.4-8.3,8.9-12.4,13.4c-2.6,2.8-5.2,5.8-7.8,8.6c-14,15.1-31.4,31-54.3,35.3 c-27.9,5.1-60-10.2-78.5-37.4C131.4,371.2,130.8,369.7,130.4,368.1L130.4,368.1z M165.9,403c14.9,7.5,30.3,10.1,44.6,7.5 c23-4.3,40.4-20.3,54.5-35.4c2.6-2.8,5.3-5.8,7.9-8.6c4.1-4.6,8.2-9.2,12.6-13.6l2.3,0.2c-4.2,5-8.2,10.2-12.1,15.4 c-2.3,3-4.7,6.1-7.1,9.2c-12.5,15.8-29.8,34.7-53.1,40.3c-28,6.7-61.4-8.8-79.4-36.8c-0.6-1-1.2-2-1.9-3c-0.5-1.2-1-2.4-1.5-3.6 C141.3,386.5,152.7,396.3,165.9,403z M285.7,352.4l1.3-1.3l2,0.1h0.2c-0.4,0.5-0.8,1-1.2,1.5L285.7,352.4z M289.7,351.2l2.2,0.1 l-1.2,1.6l-2.3-0.2L289.7,351.2z M290.1,350.8l1.2-1.4h2.1c-0.4,0.5-0.8,1-1.2,1.5L290.1,350.8z M293.9,349.3h2 c20-0.1,36.1,0.7,50.6,2.5c6.5,0.8,12.7,1.9,18.3,3.2c11.3,2.6,22.3,6.1,33,10.5c1.5,0.6,3.1,1.3,4.6,1.9v0.1 c-1.5-0.5-3-1.1-4.5-1.6c-11.3-3.7-22.8-6.5-34.5-8.6c-5.7-1-11.8-1.9-18.5-2.7c-17-2-34.5-3-50.9-3.8l-1.3-0.1L293.9,349.3z M402.9,367.7L402.9,367.7L402.9,367.7L402.9,367.7L402.9,367.7z M403.5,368L403.5,368L403.5,368L403.5,368L403.5,368z M316.5,326.1 c18-13.3,46.9-18.7,64.7-2.5c9.2,8.3,13.6,20.6,17.4,31.5c0,0.1,0,0.1,0,0.2c-4.4-10.1-9.4-21.4-18.7-29.1c-4.9-4-10.6-6.8-16.7-8.2 c-15.3-3.7-34,0.1-48.9,10c-0.4,0.2-0.7,0.5-1.1,0.8C314.4,327.8,315.5,327,316.5,326.1L316.5,326.1z M155,323.6 c30.4,13,62.8,20.2,95.7,24.9c-8.1-0.6-16.2-1.4-24.3-2.3c-25.9-3.1-46.9-7.9-66.1-15.1c-12.7-4.8-24.8-10.9-36.2-18.4 c0.1-1.8,0.2-3.6,0.4-5.4C134.2,313.6,144.4,319.1,155,323.6z M143.1,160.8c3.4,16.5,1.5,33.4-0.9,47.8c-2.1,12.7-4.9,25.6-7.7,38 c-3.9,17.6-7.9,35.7-9.9,53.9c-0.2,2-0.4,4.1-0.6,6.1c-2-1.3-4-2.6-6-4c0.2-3.7,0.4-7.5,0.8-11.3c1.9-17.9,5.8-35.9,9.6-53.2 c2.6-11.8,5.2-23.9,7.2-35.9c2.3-14,4.3-30.4,1.1-46.5c-1.4-7-3.8-13.8-7.3-20.1c-2-3.6-4.5-7-7.3-10.1 C132.5,133.3,140,145.8,143.1,160.8z M118.5,122.3l-1-0.6l-0.5-0.2c-0.3-0.4-0.7-0.8-1.1-1.2C116.8,120.9,117.7,121.6,118.5,122.3z M112.3,117.2c-0.5-0.3-1-0.6-1.5-0.9c-0.4-0.5-0.8-1-1.3-1.5C110.5,115.6,111.4,116.4,112.3,117.2z M106.2,112.1 c-0.6-0.3-1.1-0.7-1.7-1c-0.4-0.5-0.8-0.9-1.2-1.4C104.4,110.4,105.3,111.2,106.2,112.1z M97.6,104.6c0.8,0.7,1.6,1.4,2.4,2.1 c-0.6-0.4-1.1-0.7-1.7-1c-0.4-0.5-0.8-1-1.2-1.5L97.6,104.6z M92.7,100.2c0.4,0.3,0.7,0.7,1.1,1.1c-0.6-0.4-1.2-0.7-1.8-1.1 c-0.4-0.6-0.9-1.1-1.3-1.7C91.4,99.1,92.1,99.7,92.7,100.2z M85.8,94.5c-0.4-0.6-0.8-1.1-1.2-1.7c1,0.9,2.1,1.8,3.1,2.8 C87,95.3,86.4,94.9,85.8,94.5L85.8,94.5z M81.4,89.8c-0.6-0.4-1.2-0.8-1.8-1.3c-0.4-0.6-0.8-1.1-1.2-1.7l-0.1-0.1 C79.3,87.7,80.4,88.7,81.4,89.8z M75.1,83.6c-0.6-0.5-1.2-0.9-1.9-1.4c-0.4-0.7-0.8-1.3-1.3-1.9C73.1,81.4,74.1,82.4,75.1,83.6z M69,77c-0.6-0.5-1.2-1-1.9-1.5c-0.4-0.7-0.8-1.4-1.3-2.1C66.9,74.6,68,75.8,69,77z M63,69.9c-0.6-0.6-1.3-1.2-1.9-1.7 c-0.4-0.8-0.8-1.5-1.2-2.3C60.9,67.2,62,68.6,63,69.9L63,69.9z M57.1,62.2c-0.6-0.6-1.2-1.2-1.8-1.8c-0.3-0.8-0.7-1.6-1.1-2.4 C55.3,59.4,56.2,60.8,57.1,62.2L57.1,62.2z M49.1,49.3c1,1.5,1.8,3.1,2.6,4.7c-0.5-0.7-1.1-1.4-1.7-2C49.8,51.1,49.5,50.2,49.1,49.3 L49.1,49.3z M50.5,53.1c0.8,1,1.6,2,2.3,3c0.6,1.1,1.1,2.3,1.6,3.4c-0.9-0.9-1.8-1.8-2.8-2.6C51.3,55.6,50.9,54.4,50.5,53.1 L50.5,53.1z M51.9,57.7c1,1,2,2,3,2.9c0.6,1.3,1.1,2.6,1.6,3.9c-1.1-0.9-2.2-1.7-3.4-2.6C52.7,60.6,52.4,59.1,51.9,57.7L51.9,57.7z M53.2,62.6c1.2,0.9,2.4,1.8,3.6,2.7c0.5,1.4,1,2.8,1.5,4.2c0,0,0,0.1,0,0.1c-1.3-0.8-2.7-1.6-4.1-2.3C54,65.8,53.7,64.2,53.2,62.6 L53.2,62.6z M54.3,67.9c1.4,0.8,2.8,1.6,4.1,2.4c0.4,1.5,0.8,3,1.2,4.5c-1.5-0.7-3-1.3-4.6-2C55,71.1,54.7,69.5,54.3,67.9L54.3,67.9 z M55.2,73.2c1.6,0.7,3.1,1.3,4.6,2c0.4,1.6,0.7,3.1,1,4.7c-1.7-0.6-3.3-1.1-5.1-1.7C55.7,76.7,55.5,75,55.2,73.2L55.2,73.2z M55.9,80.8c0-0.7-0.1-1.3-0.1-2c1.7,0.5,3.4,1.1,5.1,1.7c0.3,1.6,0.5,3.2,0.7,4.9l0,0c-1.8-0.4-3.7-0.9-5.6-1.3 C56.1,83,56,81.9,55.9,80.8L55.9,80.8z M56.1,84.5c1.9,0.4,3.7,0.9,5.6,1.3c0.2,1.7,0.3,3.4,0.4,5.1l-4-0.6l-2-0.3 C56.2,88.2,56.2,86.4,56.1,84.5L56.1,84.5z M56.1,90.5l2,0.3l4.1,0.7c0.1,1.8,0.1,3.5,0.1,5.3l-1.7-0.2l-4.7-0.5 C56,94.3,56.1,92.4,56.1,90.5L56.1,90.5z M55.8,96.6c1.6,0.2,3.2,0.3,4.7,0.5l1.8,0.2c0,0.7,0,1.4,0,2.2c0,1.1-0.1,2.3-0.1,3.4 c-2.3-0.1-4.5-0.2-6.8-0.3C55.5,100.5,55.7,98.6,55.8,96.6L55.8,96.6z M55.2,102.9c2.3,0.1,4.6,0.2,6.9,0.3 c-0.1,1.9-0.2,3.8-0.4,5.8c-2.4,0-4.8,0-7.2,0C54.8,107,55,104.9,55.2,102.9L55.2,102.9z M61.6,109.4c-0.2,2-0.4,4-0.7,6 c-2.5,0.1-5,0.2-7.5,0.2c0.3-2.1,0.7-4.1,0.9-6.2C56.9,109.4,59.3,109.4,61.6,109.4L61.6,109.4z M44.4,179.8c0-15.6,3-31.3,5.9-46.5 c1.1-5.7,2.2-11.4,3.2-17.2c2.5,0,5-0.1,7.5-0.2c-0.7,5-1.5,9.7-2.2,14.1c-0.8,4.1-1.6,8.3-2.4,12.4c-3,15.2-6,31-6.2,46.8 c-0.1,18.2,3.7,36.2,11.2,52.8C50.8,223.1,44.5,202.2,44.4,179.8z M66.5,251.4c0.2,0.4,0.5,0.8,0.8,1.2l0.5,1.2 C67.4,253,66.9,252.2,66.5,251.4z M72.5,262.4l0.9,1.3c0.2,0.5,0.4,0.9,0.6,1.4C73.5,264.2,73,263.3,72.5,262.4L72.5,262.4z M78.5,273.5c0.3,0.5,0.7,1,1,1.6s0.4,1,0.7,1.5C79.7,275.5,79.1,274.5,78.5,273.5L78.5,273.5z M84.9,285.1l0.8,1.2l0.6,1.4 L84.9,285.1z M90.7,295.9c0.3,0.5,0.6,1,0.9,1.4s0.4,0.9,0.6,1.4C91.7,297.8,91.2,296.9,90.7,295.9z M96.6,306.8 c0.3,0.5,0.6,1,1,1.5l0.7,1.6C97.6,308.9,97.1,307.8,96.6,306.8L96.6,306.8z M102.3,317.7c0.3,0.5,0.7,1.1,1,1.6s0.4,1.1,0.7,1.7 C103.5,319.9,102.9,318.8,102.3,317.7L102.3,317.7z M108.1,328.5l0.9,1.3c0.2,0.5,0.4,1,0.6,1.5C109,330.4,108.5,329.4,108.1,328.5 L108.1,328.5z M113.5,339c0.4,0.6,0.8,1.2,1.2,1.8c0.2,0.6,0.5,1.2,0.7,1.8C114.7,341.4,114.1,340.2,113.5,339z M119.2,349.8 l1.2,1.7c0.3,0.7,0.6,1.4,0.8,2C120.5,352.3,119.8,351,119.2,349.8L119.2,349.8z M124.7,360.4c0.4,0.6,0.8,1.2,1.2,1.8l0.2,0.2 c0.3,0.8,0.6,1.5,0.9,2.3C126.2,363.3,125.5,361.8,124.7,360.4z M130.4,371.2c0.1,0.2,0.2,0.4,0.4,0.6c0.2,0.4,0.5,0.7,0.7,1.1 c0.2,0.7,0.5,1.3,0.8,2C131.7,373.7,131,372.5,130.4,371.2z M278.8,370.7c-2.1,3.2-4.3,6.6-6.5,9.8c-11.8,17.5-28.4,38.5-51.9,45.3 c-31.8,9.3-64.1-10.6-79.5-35c-1.9-3-3.6-6.1-5.1-9.2c8.7,13.2,20.7,23.9,34.9,30.9c15,7.3,30.5,9.3,44.8,5.9 c23.4-5.6,40.8-24.6,53.3-40.5c2.4-3,4.8-6.2,7.1-9.2c4-5.2,8-10.5,12.3-15.6l2.3,0.2C286.4,359,282.6,364.9,278.8,370.7z M343.4,358.1c-9.4-1-19-1.9-28.3-2.8c-7.9-0.7-15.8-1.5-23.8-2.3l1.2-1.6l1.6,0.1c16.4,0.8,33.9,1.8,50.9,3.8 c6.7,0.8,12.8,1.7,18.5,2.7c11.6,2.1,23.1,4.9,34.4,8.6c1.6,0.5,3.2,1.1,4.8,1.6c0,0.1,0,0.1,0,0.2 C383,362.7,362.5,360.1,343.4,358.1z M403.2,368.4c0,0,0-0.1,0-0.1h0.1v0.1H403.2z M403.9,368.6v-0.1h0.1c0,0,0,0.1,0,0.1H403.9z M404.5,368.8L404.5,368.8L404.5,368.8L404.5,368.8L404.5,368.8z M464.6,419.1c-5.5-9.2-12.2-17.6-20-25c-9-8.4-19.1-15.5-30-21.2 c11.8,5.1,22.8,11.8,32.7,20c8.2,7,15.3,15.2,21,24.3c15.8,25.1,19.8,53.1,10.4,73.4C485,471.5,479.6,443.7,464.6,419.1L464.6,419.1 z M483.3,454.7c-2.2-13.5-7.2-26.3-14.5-37.8c-5.7-9.2-12.8-17.4-21-24.4c-9.4-7.8-19.9-14.3-31.1-19.3c12.1,4.3,23.5,10.4,33.9,18 c28.5,21.4,47.5,64.5,29.4,97.8C484,479.1,485.2,467.3,483.3,454.7z" style="fill: inherit;"/></g></svg>